<svg width="683" height="684" viewBox="0 0 683 684" fill="none" xmlns="http://www.w3.org/2000/svg">
<g clip-path="url(#clip0_3521_2)">
<mask id="mask0_3521_2" style="mask-type:luminance" maskUnits="userSpaceOnUse" x="0" y="0" width="683" height="684">
<path d="M0 0.500366H682.667V683.167H0V0.500366Z" fill="white"/>
</mask>
<g mask="url(#mask0_3521_2)">
<path d="M184.747 357.808C178.934 293.448 189.027 216.674 210.08 176.274C213.334 170.034 222.947 170.008 226.254 176.208C232.667 188.208 238.494 205.848 243.334 224.714" stroke="#F84E1C" stroke-width="20" stroke-miterlimit="10" stroke-linecap="round" stroke-linejoin="round"/>
<path d="M198.827 342.874C213.067 289.447 235.96 234.194 268.48 176.914C270.36 173.581 275.68 174.874 275.68 178.647V280.354" stroke="#F84E1C" stroke-width="20" stroke-miterlimit="10" stroke-linecap="round" stroke-linejoin="round"/>
<path d="M376.387 48.2343V101.486H430.175V48.2343C430.175 44.013 426.752 40.5903 422.531 40.5903H384.031C379.808 40.5903 376.387 44.013 376.387 48.2343Z" stroke="#F84E1C" stroke-width="20" stroke-miterlimit="10" stroke-linecap="round" stroke-linejoin="round"/>
<path d="M345.227 407.728C341.334 407.728 338.174 404.568 338.174 400.661V399.061" stroke="#F84E1C" stroke-width="20" stroke-miterlimit="10" stroke-linecap="round" stroke-linejoin="round"/>
<path d="M468.387 280.914V400.661C468.387 404.568 465.227 407.728 461.334 407.728" stroke="#F84E1C" stroke-width="20" stroke-miterlimit="10" stroke-linecap="round" stroke-linejoin="round"/>
<path d="M338.174 363.354V216.82C338.174 196.714 347.76 177.807 363.974 165.94L372.014 160.047C374.76 158.034 376.387 154.834 376.387 151.42V101.487H430.174V151.42C430.174 154.834 431.8 158.034 434.547 160.047L442.587 165.94C458.8 177.807 468.387 196.714 468.387 216.82V234.247" stroke="#F84E1C" stroke-width="20" stroke-miterlimit="10" stroke-linecap="round" stroke-linejoin="round"/>
<path d="M144.512 407.721C140.917 407.721 137.42 406.55 134.549 404.385L93.2706 373.243C89.0572 370.063 91.3052 363.35 96.5839 363.35H369.091C374.369 363.35 376.617 370.063 372.403 373.243L331.124 404.385C328.255 406.55 324.757 407.721 321.163 407.721" stroke="#F84E1C" stroke-width="20" stroke-miterlimit="10" stroke-linecap="round" stroke-linejoin="round"/>
<path d="M179.984 363.351C206.087 332.073 243.828 301.769 287.839 271.992C290.568 270.145 294.255 272.089 294.255 275.385V363.351" stroke="#F84E1C" stroke-width="20" stroke-miterlimit="10" stroke-linecap="round" stroke-linejoin="round"/>
<path d="M338.171 313.126L399.116 334.641C401.715 335.558 404.548 335.56 407.147 334.646L468.39 313.126" stroke="#F84E1C" stroke-width="20" stroke-miterlimit="10" stroke-linecap="round" stroke-linejoin="round"/>
<path d="M467.41 205.746H339.152" stroke="#F84E1C" stroke-width="20" stroke-miterlimit="10" stroke-linecap="round" stroke-linejoin="round"/>
<path d="M550.294 366.233V313.633" stroke="#F84E1C" stroke-width="20" stroke-miterlimit="10" stroke-linecap="round" stroke-linejoin="round"/>
<path d="M526.19 223.667L517.342 281.487C514.754 298.397 527.841 313.637 544.946 313.637H555.646C572.753 313.637 585.838 298.397 583.25 281.487L574.402 223.667C573.969 220.833 571.529 218.738 568.661 218.738H531.933C529.063 218.738 526.625 220.833 526.19 223.667Z" stroke="#F84E1C" stroke-width="20" stroke-miterlimit="10" stroke-linecap="round" stroke-linejoin="round"/>
<path d="M512.747 407.728C510.507 407.728 508.801 405.768 509.014 403.541C511.107 382.594 528.787 366.234 550.294 366.234C571.801 366.234 589.481 382.594 591.574 403.541C591.801 405.768 590.081 407.728 587.841 407.728" stroke="#F84E1C" stroke-width="20" stroke-miterlimit="10" stroke-linecap="round" stroke-linejoin="round"/>
<path d="M20.9164 455.774L22.0058 443.871C23.8791 423.394 41.0524 407.722 61.6138 407.722H621.054C641.615 407.722 658.788 423.394 660.662 443.871L672.611 574.454C673.062 579.381 670.738 584.155 666.574 586.825C631.983 609.003 585.523 616.613 544.514 605.669C489.711 644.797 403.73 655.595 341.334 626.723C278.938 655.595 192.956 644.797 138.154 605.669C97.1444 616.613 50.6844 609.003 16.0938 586.825C11.9298 584.155 9.60577 579.381 10.0551 574.454L16.6458 502.441" stroke="#F84E1C" stroke-width="20" stroke-miterlimit="10" stroke-linecap="round" stroke-linejoin="round"/>
<path d="M341.334 626.724V525.4" stroke="#F84E1C" stroke-width="20" stroke-miterlimit="10" stroke-linecap="round" stroke-linejoin="round"/>
<path d="M544.514 605.669V532.168" stroke="#F84E1C" stroke-width="20" stroke-miterlimit="10" stroke-linecap="round" stroke-linejoin="round"/>
<path d="M138.153 605.669V532.168" stroke="#F84E1C" stroke-width="20" stroke-miterlimit="10" stroke-linecap="round" stroke-linejoin="round"/>
</g>
</g>
<defs>
<clipPath id="clip0_3521_2">
<rect width="682.667" height="682.667" fill="white" transform="translate(0 0.5)"/>
</clipPath>
</defs>
</svg>
