<svg width="683" height="684" viewBox="0 0 683 684" fill="none" xmlns="http://www.w3.org/2000/svg">
<g clip-path="url(#clip0_3521_43)">
<mask id="mask0_3521_43" style="mask-type:luminance" maskUnits="userSpaceOnUse" x="0" y="0" width="683" height="684">
<path d="M0 0.500366H682.667V683.167H0V0.500366Z" fill="white"/>
</mask>
<g mask="url(#mask0_3521_43)">
<path d="M77.5859 298.188L118.049 295.729C131.059 294.937 143.25 302.117 148.866 313.88L153.997 324.622C155.446 327.657 159.766 327.657 161.215 324.622L166.345 313.88C171.225 303.661 181.065 296.902 192.094 295.821" stroke="#F84E1C" stroke-width="20" stroke-miterlimit="10" stroke-linecap="round" stroke-linejoin="round"/>
<path d="M157.605 216.339V261.385" stroke="#F84E1C" stroke-width="20" stroke-miterlimit="10" stroke-linecap="round" stroke-linejoin="round"/>
<path d="M56.8751 398.222C53.7938 388.314 52.1338 377.779 52.1338 366.858C52.1338 308.607 99.3551 261.386 157.606 261.386C167.159 261.386 176.418 262.656 185.218 265.036" stroke="#F84E1C" stroke-width="20" stroke-miterlimit="10" stroke-linecap="round" stroke-linejoin="round"/>
<path d="M349.059 31.911C348.133 31.687 347.316 31.1604 346.739 30.4017C337.525 18.311 322.984 10.499 306.609 10.499C290.235 10.499 275.693 18.311 266.479 30.4017C265.901 31.1604 265.085 31.6857 264.159 31.911C245.368 36.4697 231.777 54.3257 233.912 74.9537C235.733 92.559 249.292 107.036 266.739 110.02C271.347 110.808 275.827 110.779 280.083 110.078C282.517 109.675 284.725 111.546 284.725 114.014V150.999H328.492V114.014C328.492 111.546 330.7 109.675 333.136 110.078C337.389 110.778 341.868 110.808 346.475 110.022C363.92 107.04 377.479 92.567 379.305 74.9617C381.444 54.3297 367.852 36.4697 349.059 31.911Z" stroke="#F84E1C" stroke-width="20" stroke-miterlimit="10" stroke-linecap="round" stroke-linejoin="round"/>
<path d="M595.104 398.103C606.258 387.177 613.18 371.949 613.18 355.101C613.18 321.851 586.226 294.896 552.975 294.896C542.468 294.896 532.595 297.593 523.998 302.324C523.998 302.249 524.004 302.176 524.004 302.101C524.004 259.515 489.479 224.991 446.894 224.991C443.338 224.991 439.836 225.232 436.408 225.697" stroke="#F84E1C" stroke-width="20" stroke-miterlimit="10" stroke-linecap="round" stroke-linejoin="round"/>
<path d="M360.8 398.093L392.536 244.487C396.004 227.693 394.521 210.251 388.262 194.283L380.138 173.555C374.806 159.951 361.684 151.001 347.072 151.001H266.146C251.533 151.001 238.412 159.951 233.08 173.555L224.956 194.283C218.697 210.251 217.213 227.693 220.684 244.487L252.377 397.891" stroke="#F84E1C" stroke-width="20" stroke-miterlimit="10" stroke-linecap="round" stroke-linejoin="round"/>
<path d="M645.84 467.587V519.956" stroke="#F84E1C" stroke-width="20" stroke-miterlimit="10" stroke-linecap="round" stroke-linejoin="round"/>
<path d="M645.84 577.426V659.834C645.84 667.198 639.871 673.167 632.507 673.167H50.1605C42.7965 673.167 36.8271 667.198 36.8271 659.834V467.587" stroke="#F84E1C" stroke-width="20" stroke-miterlimit="10" stroke-linecap="round" stroke-linejoin="round"/>
<path d="M167.539 467.586H23.3333C15.9693 467.586 10 461.615 10 454.253V411.425C10 404.061 15.9693 398.091 23.3333 398.091H659.333C666.697 398.091 672.667 404.061 672.667 411.425V454.253C672.667 461.615 666.697 467.586 659.333 467.586H222.027" stroke="#F84E1C" stroke-width="20" stroke-miterlimit="10" stroke-linecap="round" stroke-linejoin="round"/>
<path d="M381.098 577.426H301.569C285.673 577.426 272.786 564.539 272.786 548.643C272.786 532.747 285.673 519.86 301.569 519.86H381.098C396.995 519.86 409.882 532.747 409.882 548.643C409.882 564.539 396.995 577.426 381.098 577.426Z" stroke="#F84E1C" stroke-width="20" stroke-miterlimit="10" stroke-linecap="round" stroke-linejoin="round"/>
<path d="M650.042 127.879L650.374 127.768C652.777 126.976 652.777 123.579 650.374 122.787L650.039 122.676C635.834 117.988 624.689 106.842 620.001 92.635C619.963 92.523 619.926 92.411 619.89 92.3017C619.098 89.9004 615.702 89.903 614.909 92.303L614.798 92.6377C610.111 106.844 598.966 117.988 584.761 122.676L584.426 122.787C582.025 123.579 582.025 126.976 584.426 127.768L584.761 127.879C598.966 132.567 610.113 143.715 614.799 157.922C614.838 158.034 614.874 158.144 614.91 158.255C615.702 160.656 619.098 160.654 619.891 158.252L620.001 157.919C624.689 143.712 635.834 132.567 650.042 127.879Z" stroke="#F84E1C" stroke-width="20" stroke-miterlimit="10" stroke-linecap="round" stroke-linejoin="round"/>
<path d="M152.908 79.2008L153.241 79.0915C155.643 78.2981 155.643 74.9021 153.241 74.1101L152.907 73.9995C138.7 69.3115 127.555 58.1635 122.867 43.9568C122.831 43.8448 122.793 43.7341 122.757 43.6235C121.964 41.2221 118.569 41.2248 117.776 43.6261L117.665 43.9608C112.977 58.1675 101.833 69.3115 87.6279 73.9995L87.2932 74.1101C84.8919 74.9021 84.8919 78.2981 87.2932 79.0915L87.6279 79.2008C101.833 83.8901 112.979 95.0368 117.667 109.243C117.704 109.355 117.741 109.467 117.777 109.577C118.569 111.978 121.965 111.977 122.757 109.574L122.868 109.242C127.556 95.0341 138.701 83.8901 152.908 79.2008Z" stroke="#F84E1C" stroke-width="20" stroke-miterlimit="10" stroke-linecap="round" stroke-linejoin="round"/>
<path d="M544.672 64.7108L545.155 64.5508C548.639 63.4015 548.639 58.4748 545.155 57.3254L544.67 57.1654C524.066 50.3668 507.902 34.1988 501.102 13.5935C501.048 13.4321 500.995 13.2695 500.942 13.1095C499.794 9.62679 494.867 9.63078 493.718 13.1135L493.558 13.5988C486.758 34.2041 470.595 50.3654 449.991 57.1654L449.506 57.3254C446.023 58.4748 446.023 63.4015 449.506 64.5508L449.991 64.7108C470.595 71.5108 486.759 87.6788 493.559 108.283C493.614 108.445 493.666 108.607 493.719 108.767C494.868 112.249 499.794 112.245 500.943 108.764L501.102 108.28C507.903 87.6748 524.067 71.5108 544.672 64.7108Z" stroke="#F84E1C" stroke-width="20" stroke-miterlimit="10" stroke-linecap="round" stroke-linejoin="round"/>
<path d="M466.934 295.366C466.934 286.269 459.56 278.894 450.462 278.894C441.365 278.894 433.99 286.269 433.99 295.366" stroke="#F84E1C" stroke-width="20" stroke-miterlimit="10" stroke-linecap="round" stroke-linejoin="round"/>
<path d="M557.773 358.306C557.773 349.208 550.399 341.834 541.301 341.834C532.203 341.834 524.828 349.208 524.828 358.306" stroke="#F84E1C" stroke-width="20" stroke-miterlimit="10" stroke-linecap="round" stroke-linejoin="round"/>
<path d="M442.826 358.306C442.826 349.208 435.451 341.834 426.354 341.834C417.255 341.834 409.882 349.208 409.882 358.306" stroke="#F84E1C" stroke-width="20" stroke-miterlimit="10" stroke-linecap="round" stroke-linejoin="round"/>
<path d="M220.054 216.34H275.502" stroke="#F84E1C" stroke-width="20" stroke-miterlimit="10" stroke-linecap="round" stroke-linejoin="round"/>
<path d="M227.297 276.5H275.502" stroke="#F84E1C" stroke-width="20" stroke-miterlimit="10" stroke-linecap="round" stroke-linejoin="round"/>
<path d="M239.727 336.66H275.503" stroke="#F84E1C" stroke-width="20" stroke-miterlimit="10" stroke-linecap="round" stroke-linejoin="round"/>
<path d="M393.164 216.34H337.716" stroke="#F84E1C" stroke-width="20" stroke-miterlimit="10" stroke-linecap="round" stroke-linejoin="round"/>
<path d="M385.921 276.5H337.716" stroke="#F84E1C" stroke-width="20" stroke-miterlimit="10" stroke-linecap="round" stroke-linejoin="round"/>
<path d="M373.491 336.66H337.715" stroke="#F84E1C" stroke-width="20" stroke-miterlimit="10" stroke-linecap="round" stroke-linejoin="round"/>
</g>
</g>
<defs>
<clipPath id="clip0_3521_43">
<rect width="682.667" height="682.667" fill="white" transform="translate(0 0.5)"/>
</clipPath>
</defs>
</svg>
