<svg width="512" height="513" viewBox="0 0 512 513" fill="none" xmlns="http://www.w3.org/2000/svg">
<g clip-path="url(#clip0_3521_94)">
<path d="M358.955 226.971C359.023 226.973 359.092 226.979 359.16 226.981C359.801 226.772 358.705 226.928 358.955 226.971Z" fill="#F84E1C"/>
<path d="M156.001 226.977C156.826 226.985 155.259 226.724 156.001 226.977Z" fill="#F84E1C"/>
<path d="M147.222 241.875C147.222 270.758 147.222 309.529 147.222 322.682C147.222 335.781 157.878 346.437 170.976 346.437H283.38C287.536 346.437 290.904 343.069 290.904 338.913C290.904 334.757 287.536 331.389 283.38 331.389H170.975C166.775 331.389 163.26 328.398 162.447 324.435C162.206 323.261 162.269 324.219 162.269 305.41H352.801V322.682C352.801 327.482 348.895 331.389 344.095 331.389H309.796C305.64 331.389 302.272 334.757 302.272 338.913C302.272 343.069 305.64 346.437 309.796 346.437H344.095C357.193 346.437 367.849 335.781 367.849 322.682C367.849 309.503 367.849 270.566 367.849 241.956C418.634 237.997 456.939 194.525 456.21 146.164C456.211 146.095 456.213 146.025 456.213 145.955C456.213 86.5073 402.297 40.9943 343.341 51.5863C307.084 -16.9137 209.442 -16.2027 173.681 51.7673C114.53 40.5023 59.7607 85.9393 59.7607 145.956C59.7607 146.025 59.7637 146.095 59.7637 146.165C59.7637 146.231 59.7607 146.297 59.7607 146.364C59.7607 196.395 98.2817 237.592 147.222 241.875ZM156.811 65.3383C160.042 65.4293 164.419 65.5343 167.602 66.0053C164.408 75.5513 162.673 85.7583 162.673 96.3643C162.672 100.519 166.041 103.888 170.196 103.888C174.351 103.888 177.72 100.519 177.72 96.3643C177.72 35.4293 242.162 -2.4977 295.152 24.3163C321.741 37.8513 339.401 65.3533 339.401 96.3643C339.401 100.519 342.769 103.888 346.925 103.888C351.081 103.888 354.449 100.519 354.449 96.3643C354.449 85.7043 352.698 75.4463 349.473 65.8593C352.303 65.4763 356.314 65.4203 359.164 65.3363C403.669 65.3363 441.048 101.676 441.161 146.158C441.05 190.64 403.668 226.98 359.16 226.98C359.056 226.98 358.992 226.976 358.955 226.97C347.861 226.636 336.042 224.284 326.04 219.593C322.281 217.829 317.797 219.447 316.033 223.21C314.268 226.972 315.888 231.452 319.65 233.217C330.157 238.145 341.278 241.071 352.801 241.957V290.361H314.878V266.777C314.878 262.621 311.51 259.253 307.354 259.253C303.198 259.253 299.83 262.621 299.83 266.777V290.361H263.482V266.777C263.482 262.621 260.114 259.253 255.958 259.253C251.803 259.253 248.434 262.621 248.434 266.777V290.361H212.088V266.777C212.088 262.621 208.719 259.253 204.564 259.253C200.409 259.253 197.04 262.621 197.04 266.777V290.361H162.27V242.018C174.117 241.218 185.546 238.274 196.326 233.217C200.088 231.452 201.707 226.972 199.943 223.21C198.177 219.448 193.696 217.83 189.936 219.593C179.633 224.425 167.441 226.768 156.001 226.977C111.951 226.535 74.9257 190.186 74.8157 146.159C74.9267 101.678 112.305 65.3383 156.811 65.3383Z" fill="#F84E1C"/>
<path d="M156.811 65.3379C157.623 65.3379 156.079 65.5759 156.811 65.3379Z" fill="#F84E1C"/>
<path d="M359.164 65.3369C359.898 65.5759 358.351 65.3369 359.164 65.3369Z" fill="#F84E1C"/>
<path d="M455.826 361.332C433.632 322.889 355.7 347.804 353.412 392.251L261.853 445.111L172.972 393.797L173.945 392.112C180.493 380.769 176.591 366.213 165.249 359.664L105.317 325.061C101.717 322.984 97.1163 324.215 95.0383 327.815C92.9603 331.414 94.1933 336.015 97.7923 338.093L157.725 372.696C161.882 375.097 163.312 380.432 160.912 384.588C154.254 396.121 156.27 392.628 151.487 400.912L83.7123 361.784C80.1133 359.708 75.5123 360.938 73.4343 364.538C71.3563 368.137 72.5893 372.738 76.1883 374.816L143.962 413.944C142.436 416.586 138.063 424.162 134.539 430.267C132.137 434.423 126.801 435.854 122.644 433.454L62.7123 398.853C59.1133 396.776 54.5113 398.007 52.4343 401.607C50.3563 405.206 51.5893 409.807 55.1883 411.885C120.09 449.355 118.517 449.664 126.958 449.664C135.173 449.664 143.176 445.403 147.571 437.792L148.542 436.11L215.841 474.964C205.594 491.358 217.475 512.376 236.539 512.376C244.553 512.376 248.077 509.482 261.853 501.529L274.966 509.1C296.857 521.74 321.231 496.584 307.963 475.084L335.068 459.993C338.699 457.972 340.003 453.39 337.981 449.759C335.959 446.128 331.377 444.822 327.747 446.846L295.732 464.671L276.9 453.798L364.714 403.099C367.192 401.667 368.644 398.955 368.459 396.099C366.39 363.988 428.035 343.291 442.791 368.855C457.578 394.463 408.751 437.413 382.031 419.607C379.65 418.019 376.575 417.921 374.097 419.35L349.643 433.468C346.044 435.546 344.812 440.147 346.889 443.746C348.966 447.346 353.569 448.576 357.167 446.5L377.839 434.565C417.538 454.836 477.993 399.718 455.826 361.332ZM241.215 496.071C232.561 501.072 223.059 490.698 228.887 482.499L246.804 492.844L241.215 496.071ZM296.244 485.519C297.84 491.466 293.355 497.331 287.168 497.331C283.939 497.331 284.049 496.971 265.626 486.335C265.626 486.335 232.068 466.961 231.804 466.807L231.802 466.806L156.065 423.08L165.448 406.829C303.676 486.636 294.846 480.296 296.244 485.519Z" fill="#F84E1C"/>
</g>
<defs>
<clipPath id="clip0_3521_94">
<rect width="511.998" height="511.998" fill="white" transform="translate(0 0.5)"/>
</clipPath>
</defs>
</svg>
