<svg width="513" height="513" viewBox="0 0 513 513" fill="none" xmlns="http://www.w3.org/2000/svg">
<g clip-path="url(#clip0_3513_2)">
<path d="M490.88 261.662H473.106C471.442 234.639 464.86 208.557 453.47 184.037C451.731 180.283 447.278 178.658 443.524 180.396C439.771 182.139 438.142 186.592 439.884 190.346C450.349 212.881 456.454 236.838 458.095 261.662H115.024C110.888 261.662 107.536 265.014 107.536 269.15C107.536 273.287 110.888 276.639 115.024 276.639H490.88C494.669 276.639 497.747 279.721 497.747 283.51V292.65C497.747 296.439 494.669 299.521 490.88 299.521H22.5752C18.7861 299.521 15.708 296.439 15.708 292.65V283.51C15.708 279.721 18.7861 276.639 22.5752 276.639H80.1143C84.251 276.639 87.6064 273.287 87.6064 269.15C87.6064 265.014 84.251 261.662 80.1143 261.662H55.3604C58.6611 211.908 79.9971 165.623 115.958 130.615C150.614 96.8809 195.396 77.0215 243.255 73.873C243.282 73.873 243.31 73.877 243.337 73.873C245.376 73.7402 247.392 73.6387 249.384 73.5645C249.782 73.5527 250.177 73.5332 250.575 73.5215C251.286 73.498 251.993 73.4824 252.692 73.4668C254.036 73.4434 255.38 73.4199 256.728 73.4199C258.517 73.4199 260.306 73.4551 262.091 73.502C262.618 73.5176 263.142 73.5332 263.673 73.5488C265.048 73.5957 266.419 73.666 267.79 73.7402C268.517 73.7793 269.243 73.8184 269.974 73.8652C331.462 77.9043 388.032 109.881 423.235 161.154C425.575 164.561 430.239 165.432 433.649 163.088C437.06 160.748 437.927 156.084 435.583 152.674C400.942 102.217 347.024 69.1699 287.431 60.6465C291.165 54.8496 293.263 48.0254 293.263 40.877C293.263 36.8066 291.446 29.3027 279.282 24.8262C273.208 22.5918 265.196 21.3574 256.728 21.3574C248.255 21.3574 240.243 22.5918 234.169 24.8262C222.005 29.3027 220.192 36.8066 220.192 40.877C220.192 48.0059 222.282 54.8184 225.993 60.6035C180.747 67.0059 138.782 87.4902 105.509 119.881C66.6377 157.721 43.6729 207.83 40.3486 261.658H22.5752C10.5283 261.662 0.727539 271.463 0.727539 283.51V292.65C0.727539 304.701 10.5283 314.502 22.5752 314.502H103.259C99.2314 317.26 95.3721 320.354 91.7588 323.787L91.6104 323.928C91.3799 324.143 91.1611 324.373 90.9619 324.619L55.4033 367.799C50.9424 364.967 45.6611 363.936 40.4502 364.936C35.0166 365.975 30.3174 369.068 27.2158 373.646L13.2314 394.268C6.83691 403.701 9.30566 416.588 18.7314 422.99L114.423 487.998C117.892 490.354 121.899 491.58 126.005 491.58C127.31 491.58 128.626 491.455 129.938 491.205C135.368 490.166 140.067 487.072 143.169 482.494L157.153 461.873C163.548 452.439 161.083 439.553 151.657 433.15L151.11 432.779C157.771 425.221 166.649 419.803 176.31 417.568C196.665 412.854 220.618 415.889 236.864 418.58C256.962 421.908 278.071 420.771 297.911 415.291L325.489 407.67C343.86 402.592 360.767 394.041 375.743 382.252C375.856 382.162 375.966 382.072 376.075 381.975L423.423 340.041C431.493 333.865 433.251 323.17 430.466 314.502H490.88C502.927 314.502 512.728 304.701 512.728 292.654V283.51C512.728 271.463 502.927 261.662 490.88 261.662ZM256.728 36.3379C269.341 36.3379 276.899 39.459 278.282 41.1934C278.181 48.2988 274.587 54.8535 268.739 58.7832C267.267 58.7051 265.813 58.6426 264.364 58.5879C263.876 58.5723 263.388 58.5488 262.899 58.5371C260.81 58.4746 258.747 58.4434 256.728 58.4434C255.294 58.4434 253.833 58.4629 252.36 58.4941C251.649 58.5059 250.935 58.5254 250.22 58.5488C249.368 58.5762 248.509 58.6035 247.649 58.6387C246.669 58.6816 245.688 58.7246 244.712 58.7793C238.864 54.8496 235.274 48.2949 235.173 41.1934C236.556 39.459 244.114 36.3379 256.728 36.3379ZM310.438 318.115C309.88 316.85 309.212 315.646 308.458 314.502H380.298L349.235 335.061L304.958 347.869L303.454 347.904C311.978 340.799 315.087 328.666 310.438 318.115ZM229.22 314.502L218.411 316.756L210.056 314.502H229.22ZM144.755 453.467L130.774 474.088C129.919 475.354 128.622 476.205 127.122 476.494C125.626 476.779 124.103 476.467 122.841 475.607L27.1494 410.6C24.5479 408.834 23.8682 405.279 25.6338 402.678L39.6182 382.053C40.4736 380.791 41.7666 379.936 43.2666 379.65C43.6299 379.58 43.9932 379.545 44.3525 379.545C45.4854 379.545 46.5908 379.885 47.5479 380.537L52.7158 384.045C52.7158 384.049 52.7197 384.049 52.7197 384.049L143.239 445.541C145.841 447.307 146.521 450.865 144.755 453.467ZM414.231 328.213C414.052 328.342 413.88 328.482 413.712 328.631L366.313 370.615C352.95 381.096 337.872 388.705 321.501 393.229L293.923 400.85C276.165 405.76 257.282 406.779 239.317 403.803C221.81 400.904 195.888 397.658 172.931 402.975C159.634 406.053 147.493 413.693 138.661 424.318L67.8682 376.229L102.228 334.502C115.224 322.232 131.704 314.947 147.485 314.502H147.79C152.685 314.42 157.864 315.861 163.345 317.396C164.446 317.701 165.544 318.01 166.646 318.307L216.239 331.686C217.376 331.99 218.567 332.025 219.72 331.783L284.673 318.24C287.618 317.631 290.712 318.229 293.161 319.889C294.743 320.963 295.978 322.439 296.731 324.154C298.958 329.205 296.86 335.135 291.884 337.697L269.724 349.432C266.657 351.057 265.11 354.572 265.981 357.932C266.856 361.295 269.915 363.584 273.392 363.537L306.263 362.826C306.915 362.811 307.56 362.713 308.181 362.533L354.497 349.135C355.228 348.924 355.919 348.604 356.552 348.186L403.278 317.256C407.2 314.834 412.419 312.842 415.196 316.939C417.36 320.127 417.411 325.865 414.231 328.213Z" fill="#F84E1C"/>
</g>
<defs>
<clipPath id="clip0_3513_2">
<rect width="512" height="512" fill="white" transform="translate(0.727539 0.357422)"/>
</clipPath>
</defs>
</svg>
